StrokeTest-Regular.ufo
<glyph name="A" format="2">
  <advance width="565"/>
  <unicode hex="0041"/>
  <outline>
    <contour>
      <point x="465" y="297" type="move"/>
      <point x="448" y="423"/>
      <point x="361" y="500"/>
      <point x="273" y="500" type="curve" smooth="yes"/>
      <point x="163" y="500"/>
      <point x="80" y="416"/>
      <point x="80" y="255" type="curve" smooth="yes"/>
      <point x="80" y="83"/>
      <point x="156" y="0"/>
      <point x="257" y="0" type="curve"/>
      <point x="348" y="0"/>
      <point x="445" y="112"/>
      <point x="465" y="234" type="curve" smooth="yes"/>
    </contour>
    <contour>
      <point x="486" y="0" type="move"/>
      <point x="474" y="50"/>
      <point x="465" y="119"/>
      <point x="465" y="213" type="curve" smooth="yes"/>
      <point x="465" y="500" type="line"/>
    </contour>
  </outline>
</glyph>
<glyph name="B" format="2">
  <advance width="570"/>
  <unicode hex="0042"/>
  <outline>
    <contour>
      <point x="46" y="388" type="move"/>
      <point x="104" y="485"/>
      <point x="119" y="500"/>
      <point x="146" y="500" type="curve" smooth="yes"/>
      <point x="210" y="500"/>
      <point x="79" y="0"/>
      <point x="183" y="0" type="curve" smooth="yes"/>
      <point x="280" y="0"/>
      <point x="480" y="300"/>
      <point x="524" y="500" type="curve"/>
    </contour>
  </outline>
</glyph>
<glyph name="C" format="2">
  <advance width="569"/>
  <unicode hex="0043"/>
  <outline>
    <contour>
      <point x="46" y="388" type="move"/>
      <point x="103" y="485"/>
      <point x="118" y="500"/>
      <point x="139" y="500" type="curve" smooth="yes"/>
      <point x="164" y="500"/>
      <point x="187" y="479"/>
      <point x="152" y="276" type="curve" smooth="yes"/>
      <point x="129" y="144"/>
      <point x="121" y="0"/>
      <point x="194" y="0" type="curve" smooth="yes"/>
      <point x="286" y="0"/>
      <point x="480" y="300"/>
      <point x="524" y="500" type="curve"/>
    </contour>
  </outline>
</glyph>
<glyph name="D" format="2">
  <advance width="545"/>
  <unicode hex="0044"/>
  <outline>
    <contour>
      <point x="46" y="388" type="move"/>
      <point x="103" y="485"/>
      <point x="119" y="500"/>
      <point x="146" y="500" type="curve" smooth="yes"/>
      <point x="189" y="500"/>
      <point x="224" y="426"/>
      <point x="259" y="426" type="curve" smooth="yes"/>
      <point x="274" y="426"/>
      <point x="291" y="438"/>
      <point x="314" y="465" type="curve"/>
      <point x="278" y="391"/>
      <point x="239" y="301"/>
      <point x="219" y="250" type="curve" smooth="yes"/>
      <point x="129" y="20"/>
      <point x="167" y="0"/>
      <point x="208" y="0" type="curve" smooth="yes"/>
      <point x="276" y="0"/>
      <point x="422" y="154"/>
      <point x="499" y="319" type="curve" smooth="yes"/>
    </contour>
  </outline>
</glyph>
<glyph name="a" format="2">
  <advance width="300"/>
  <unicode hex="0061"/>
  <outline>
    <contour>
      <point x="150" y="500" type="move"/>
      <point x="150" y="0" type="line"/>
    </contour>
  </outline>
</glyph>
<glyph name="b" format="2">
  <advance width="358"/>
  <unicode hex="0062"/>
  <outline>
    <contour>
      <point x="278" y="501" type="move"/>
      <point x="179" y="501"/>
      <point x="80" y="428"/>
      <point x="80" y="256" type="curve" smooth="yes"/>
    </contour>
  </outline>
</glyph>
<glyph name="c" format="2">
  <advance width="200"/>
  <unicode hex="0063"/>
  <outline>
    <contour>
      <point x="100" y="250" type="move"/>
    </contour>
  </outline>
</glyph>
<glyph name="e" format="2">
  <advance width="200"/>
  <unicode hex="0065"/>
  <outline>
    <contour>
      <point x="106" y="240"/>
      <point x="110" y="244"/>
      <point x="110" y="250" type="curve" smooth="yes"/>
      <point x="110" y="256"/>
      <point x="106" y="260"/>
      <point x="100" y="260" type="curve"/>
      <point x="94" y="260"/>
      <point x="90" y="256"/>
      <point x="90" y="250" type="curve" smooth="yes"/>
      <point x="90" y="244"/>
      <point x="94" y="240"/>
      <point x="100" y="240" type="curve" smooth="yes"/>
    </contour>
  </outline>
</glyph>
<glyph name="f" format="2">
  <advance width="561"/>
  <unicode hex="0066"/>
  <outline>
    <contour>
      <point x="461" y="245" type="curve" smooth="yes"/>
      <point x="519" y="417"/>
      <point x="440" y="500"/>
      <point x="356" y="500" type="curve" smooth="yes"/>
      <point x="274" y="500"/>
      <point x="177" y="461"/>
      <point x="106" y="278" type="curve" smooth="yes"/>
      <point x="37" y="100"/>
      <point x="119" y="0"/>
      <point x="201" y="0" type="curve" smooth="yes"/>
      <point x="287" y="0"/>
      <point x="395" y="68"/>
    </contour>
  </outline>
</glyph>
<glyph name="h" format="2">
  <advance width="600"/>
  <unicode hex="0068"/>
  <outline>
    <contour>
      <point x="80" y="500" type="move"/>
      <point x="92" y="450"/>
      <point x="100" y="381"/>
      <point x="100" y="286" type="curve" smooth="yes"/>
      <point x="100" y="0" type="line"/>
    </contour>
  </outline>
</glyph>
<glyph name="i" format="2">
  <advance width="570"/>
  <unicode hex="0069"/>
  <outline>
    <contour>
      <point x="470" y="0" type="move"/>
      <point x="470" y="286" type="line" smooth="yes"/>
      <point x="469" y="443"/>
      <point x="415" y="500"/>
      <point x="324" y="500" type="curve" smooth="yes"/>
      <point x="235" y="500"/>
      <point x="156" y="440"/>
      <point x="100" y="286" type="curve"/>
    </contour>
  </outline>
</glyph>
<glyph name="k" format="2">
  <advance width="570"/>
  <unicode hex="006B"/>
  <outline>
    <contour>
      <point x="470" y="100" type="move"/>
      <point x="470" y="-44" type="line" smooth="yes"/>
      <point x="470" y="-224"/>
      <point x="360" y="-270"/>
      <point x="294" y="-270" type="curve" smooth="yes"/>
      <point x="227" y="-270"/>
      <point x="169" y="-240"/>
      <point x="136" y="-186" type="curve"/>
    </contour>
  </outline>
</glyph>
<glyph name="p" format="2">
  <advance width="570"/>
  <unicode hex="0070"/>
  <outline>
    <contour>
      <point x="470" y="0" type="move"/>
      <point x="470" y="286" type="line" smooth="yes"/>
      <point x="469" y="443"/>
      <point x="415" y="500"/>
      <point x="324" y="500" type="curve" smooth="yes"/>
      <point x="235" y="500"/>
      <point x="156" y="440"/>
      <point x="100" y="286" type="curve"/>
    </contour>
    <contour>
      <point x="80" y="500" type="move"/>
      <point x="92" y="450"/>
      <point x="100" y="381"/>
      <point x="100" y="286" type="curve" smooth="yes"/>
      <point x="100" y="0" type="line"/>
    </contour>
    <contour>
      <point x="470" y="100" type="move"/>
      <point x="470" y="-44" type="line" smooth="yes"/>
      <point x="470" y="-224"/>
      <point x="360" y="-270"/>
      <point x="294" y="-270" type="curve" smooth="yes"/>
      <point x="227" y="-270"/>
      <point x="169" y="-240"/>
      <point x="136" y="-186" type="curve"/>
    </contour>
  </outline>
</glyph>
<glyph name="q" format="2">
  <advance width="761"/>
  <unicode hex="0071"/>
  <outline>
    <contour>
      <point x="661" y="245" type="curve" smooth="yes"/>
      <point x="719" y="417"/>
      <point x="640" y="500"/>
      <point x="556" y="500" type="curve" smooth="yes"/>
      <point x="474" y="500"/>
      <point x="377" y="461"/>
      <point x="306" y="278" type="curve" smooth="yes"/>
      <point x="237" y="100"/>
      <point x="319" y="0"/>
      <point x="401" y="0" type="curve" smooth="yes"/>
      <point x="487" y="0"/>
      <point x="595" y="68"/>
    </contour>
    <contour>
      <point x="461" y="245" type="curve" smooth="yes"/>
      <point x="519" y="417"/>
      <point x="440" y="500"/>
      <point x="356" y="500" type="curve" smooth="yes"/>
      <point x="274" y="500"/>
      <point x="177" y="461"/>
      <point x="106" y="278" type="curve" smooth="yes"/>
      <point x="37" y="100"/>
      <point x="119" y="0"/>
      <point x="201" y="0" type="curve" smooth="yes"/>
      <point x="287" y="0"/>
      <point x="395" y="68"/>
    </contour>
  </outline>
</glyph>
<glyph name="s" format="2">
  <advance width="561"/>
  <unicode hex="0073"/>
  <outline>
    <contour>
      <point x="461" y="245" type="curve" smooth="yes"/>
      <point x="519" y="417"/>
      <point x="440" y="500"/>
      <point x="356" y="500" type="curve" smooth="yes"/>
      <point x="274" y="500"/>
      <point x="177" y="461"/>
      <point x="106" y="278" type="curve" smooth="yes"/>
      <point x="37" y="100"/>
      <point x="119" y="0"/>
      <point x="201" y="0" type="curve" smooth="yes"/>
      <point x="287" y="0"/>
      <point x="395" y="68"/>
    </contour>
    <contour>
      <point x="20" y="260" type="move"/>
      <point x="541" y="260" type="line"/>
    </contour>
  </outline>
</glyph>
<glyph name="t" format="2">
  <advance width="561"/>
  <unicode hex="0074"/>
  <outline>
    <contour>
      <point x="461" y="246" type="move"/>
      <point x="519" y="418"/>
      <point x="440" y="500"/>
      <point x="356" y="500" type="curve" smooth="yes"/>
      <point x="274" y="500"/>
      <point x="177" y="461"/>
      <point x="106" y="278" type="curve" smooth="yes"/>
      <point x="37" y="100"/>
      <point x="119" y="0"/>
      <point x="201" y="0" type="curve" smooth="yes"/>
      <point x="287" y="0"/>
      <point x="395" y="68"/>
      <point x="461" y="245" type="curve" smooth="yes"/>
    </contour>
    <contour>
      <point x="20" y="260" type="move"/>
      <point x="541" y="260" type="line"/>
    </contour>
  </outline>
</glyph>
<glyph name="u" format="2">
  <advance width="496"/>
  <unicode hex="0075"/>
  <outline>
    <contour>
      <point x="50" y="500" type="move"/>
      <point x="246" y="0" type="line"/>
      <point x="446" y="500" type="line"/>
    </contour>
  </outline>
</glyph>
<glyph name="v" format="2">
  <advance width="496"/>
  <unicode hex="0076"/>
  <outline>
    <contour>
      <point x="50" y="500" type="move"/>
      <point x="246" y="0" type="line"/>
    </contour>
    <contour>
      <point x="246" y="0" type="move"/>
      <point x="446" y="500" type="line"/>
    </contour>
  </outline>
</glyph>
<glyph name="w" format="2">
  <advance width="544"/>
  <unicode hex="0077"/>
  <outline>
    <contour>
      <point x="50" y="500" type="move"/>
      <point x="146" y="0" type="line"/>
      <point x="272" y="500" type="line"/>
      <point x="394" y="0" type="line"/>
      <point x="494" y="500" type="line"/>
    </contour>
  </outline>
</glyph>
<glyph name="x" format="2">
  <advance width="531"/>
  <unicode hex="0078"/>
  <outline>
    <contour>
      <point x="80" y="500" type="move"/>
      <point x="461" y="0" type="line"/>
    </contour>
    <contour>
      <point x="450" y="500" type="move"/>
      <point x="70" y="0" type="line"/>
    </contour>
  </outline>
</glyph>
<glyph name="y" format="2">
  <advance width="311"/>
  <unicode hex="0079"/>
  <outline>
    <contour>
      <point x="80" y="500" type="move"/>
      <point x="241" y="0" type="line"/>
    </contour>
    <contour>
      <point x="230" y="500" type="move"/>
      <point x="70" y="0" type="line"/>
    </contour>
  </outline>
</glyph>
<glyph name="z" format="2">
  <advance width="880"/>
  <unicode hex="007A"/>
  <outline>
    <contour>
      <point x="50" y="500" type="move"/>
      <point x="170" y="0" type="line"/>
      <point x="280" y="500" type="line"/>
      <point x="380" y="0" type="line"/>
      <point x="470" y="500" type="line"/>
      <point x="550" y="0" type="line"/>
      <point x="620" y="500" type="line"/>
      <point x="680" y="0" type="line"/>
      <point x="730" y="500" type="line"/>
      <point x="770" y="0" type="line"/>
      <point x="800" y="500" type="line"/>
      <point x="820" y="0" type="line"/>
      <point x="830" y="500" type="line"/>
    </contour>
  </outline>
</glyph>
<glyph name=".notdef" format="2">
  <advance width="600"/>
  <outline>
    <contour>
      <point x="100" y="0" type="line"/>
      <point x="500" y="0" type="line"/>
      <point x="500" y="700" type="line"/>
      <point x="100" y="700" type="line"/>
    </contour>
    <contour>
      <point x="150" y="650" type="line"/>
      <point x="450" y="650" type="line"/>
      <point x="450" y="50" type="line"/>
      <point x="150" y="50" type="line"/>
    </contour>
  </outline>
</glyph>
